<?xml version="1.0" encoding="UTF-8"?><svg id="_レイヤー_2" xmlns="http://www.w3.org/2000/svg" viewBox="0 0 100.15 113.88"><g id="_レイヤー_1-2"><path d="m30.78,25.48c3.17,1.6,6.47,2.92,11.4,5.08-8.44.22-7.44,5.11-7.32,9.5,2.53,1.25,5.06,2.51,7.71,3.82-1.32,1.73-2.73,1.73-3.99,2.04-1.06.26-2.07.71-1.93,1.88.2,1.8,1.77,1.18,2.77,1.08,3.45-.33,6.15-2.4,8.97-4.14.85-.52,1.78-1.16,1.49-2.33-.28-1.13-1.34-1.43-2.37-1.46-2.51-.07-4.97-.23-7.27-1.45-1.22-.64-2.43-1.18-2.35-2.84.06-1.35.94-1.91,2.05-2.52,1.59-.86,3.16-1.88,4.47-3.11,2.24-2.1,2-3.65-1.29-4.29-3.76-.73-7.45-1.67-10.68-3.9-.93-.64-2.22-1.56-3.11-.45-1.23,1.54.43,2.56,1.43,3.07Z" style="fill:#7a7775; stroke-width:0px;"/><path d="m7.95,36.32c.77.29,1.68.21,2.42.55,1.35.62,3.6-.56,4.03,1.91.38,2.21-1.33,3.29-2.71,4.39-1,.81-2.3,1.25-3.47,1.85-1.13.58-3.07.54-3.05,2.09.02,1.67,1.87,2.1,3.24,2.65.77.31,1.55.59,2.35.81,1.65.46,3.91,2.31,4.86.2,1.2-2.64-2.27-1.94-3.36-3.08-.19-.2-.24-.53-.45-1.03,5-2.2,5.69-6.83,6.48-11.41-1.67-1.64-4.62-.12-5.99-2.22,2.86-2.37,5.66-4.68,8.44-7.01.87-.73,2.15-1.49,1.11-2.79-1.08-1.35-2.1-.12-2.93.55-3.58,2.94-6.91,6.21-11.41,7.84-1.18.43-2.89.55-2.85,2.28.05,2,1.98,1.92,3.3,2.41Z" style="fill:#7a7775; stroke-width:0px;"/><path d="m15.96,70.38c1.64-1.86.98-4.07.94-6.16,0-.43-.78-1.1-1.29-1.2-1.03-.2-1.57.71-1.51,1.51.42,5.55-3.4,5.96-7.39,6.25-1.26.09-2.93-.36-3.41,1.29-.62,2.17,1.73,1.96,2.52,2.75,2.26,1.2,4.41,2.04,6.79,2.02,1.19,0,3.06-.99,2.19-1.7-3.5-2.82,0-3.43,1.17-4.76Z" style="fill:#7a7775; stroke-width:0px;"/><path d="m25.49,21.84c.9-.1,1.22-1.05,1.22-1.94.05-5.99.1-11.98.1-17.96,0-.62-.32-1.23-.46-1.74-1.88-.68-2.41.42-2.42,1.65-.08,5.99-.06,11.98-.02,17.96,0,1.01.26,2.17,1.58,2.02Z" style="fill:#7a7775; stroke-width:0px;"/><path d="m15.07,55.49c.41-.83,1.37-1.66.22-2.54-.85-.65-1.62.05-2.17.55-1.59,1.45-3.17,2.86-5.31,3.49-1.06.31-2.47.48-2.6,1.9-.16,1.74,1.56,1.87,2.9,2.79,1.07.32,2.46.89,3.9,1.13,1.03.17,2.49-1,1.84-1.51-3.9-3.02.34-4.01,1.23-5.8Z" style="fill:#7a7775; stroke-width:0px;"/><path d="m32.29,73.1c-4.27.62-8.54,1.26-12.8,1.93-1,.16-2.16.5-2.02,1.71.12,1.12,1.22,1.55,2.3,1.39,4.43-.64,8.86-1.33,13.28-2.05.43-.07.81-.48,1.26-.76.05-.52.25-1.07.1-1.46-.38-.95-1.3-.88-2.12-.76Z" style="fill:#7a7775; stroke-width:0px;"/><path d="m32.69,79.02c-4.42.75-8.84,1.48-13.25,2.3-.75.14-1.66.55-1.55,1.61.05.44.37.86.51,1.15.9.56,15.13-1.86,15.71-2.61.27-.35.51-.91.44-1.32-.17-.97-.93-1.29-1.86-1.14Z" style="fill:#7a7775; stroke-width:0px;"/><path d="m19.79,41.11c-.82.03-1.63.62-1.51,1.62.15,1.27,1.2,1.49,2.22,1.37,4.09-.47,8.17-.98,12.25-1.53,1.35-.18,1.62-1.39,2.04-2.42-5.09-1.29-9.99.78-14.99.96Z" style="fill:#7a7775; stroke-width:0px;"/><path d="m34.79,40.15s.05.01.08.02h0s0,0,0,0h0s0,0,0,0c0-.03,0-.06,0-.1-.01,0-.02-.01-.04-.02-.01.03-.03.06-.04.1Z" style="fill:#7a7775; stroke-width:0px;"/><path d="m19.5,62.76c4.14-.24,8.74-.25,13.23-1.36.63-.16,1.13-.89.77-1.53-.27-.48-1-1.05-1.48-1.02-4.26.27-8.52.63-12.77,1.08-.48.05-1.11.76-1.27,1.28-.2.68.41,1.15,1.52,1.55Z" style="fill:#7a7775; stroke-width:0px;"/><path d="m90.03,52.57c-.68.51-1.41.87-1.17,1.87.4,1.64,1.81,1,2.84,1.22,5.46-5.45,5.83-7.72,1.93-11.91-1.32.35-3.05.93-1.83,2.51,2.48,3.17.37,4.69-1.78,6.31Z" style="fill:#7a7775; stroke-width:0px;"/><path d="m20.29,52.53c3.65-.32,7.29-.67,10.93-1.07.61-.07,1.19-.44,1.64-.62.7-1.79.01-2.5-1.49-2.39-3.82.3-7.63.69-11.43,1.1-1.08.12-1.94.7-1.66,1.96.22,1.02,1.18,1.09,2,1.01Z" style="fill:#7a7775; stroke-width:0px;"/><path d="m31.87,64.71c-3.73.61-7.45,1.32-11.15,2.07-.77.16-1.62.6-1.32,1.67.12.42.5.77.65.97,1.09.51,12.52-1.63,13.2-2.32.52-.52.78-1.22.31-1.73-.38-.41-1.16-.76-1.69-.67Z" style="fill:#7a7775; stroke-width:0px;"/><path d="m31.39,35.76c.89,0,1.64-.67,1.58-1.56-.03-.47-.85-1.32-1.21-1.27-4.49.58-9.53-1.8-13.38,2.31,4.25,2.15,8.67.48,13.02.52Z" style="fill:#7a7775; stroke-width:0px;"/><path d="m18.37,35.23s-.05-.02-.08-.04h0s0,0,0,0c0,0,0,0,0,0h0s0,.04,0,.06c.01.01.02.02.04.03.02-.02.03-.03.05-.05Z" style="fill:#7a7775; stroke-width:0px;"/><path d="m64.28,84.73c.4-.89.45-1.75-.51-2.05-1.05-.33-2.29-.59-3.02.62-.47.78-.13,1.65.62,2.05,1.09.58,2.16.39,2.91-.61Z" style="fill:#7a7775; stroke-width:0px;"/><path d="m98.41,104.79h0c-3.74-.48-4.25-1.35-2.63-4.79,2.72-5.76,3.16-12.23.65-17.92-1.29-2.93-2.05-5.27-1.32-8.2,1.35-5.44.87-10.57-2.47-15.24-1.34-1.47-2.88-3.45-4.88-1.75-1.86,1.57-.09,3.3,1,4.72.82,1.06,1.51,2.18,1.97,3.44,1.66,4.61.74,5.85-4.24,5.67-.12.02-.23.06-.34.1.05.18.13.35.25.53-.69.43-1.38.86-2.87,1.78,1.22-2.92,2.12-5.08,3.02-7.24,1.15,1.29,0,2.52-.37,3.77.75-1.16,1.2-2.42.84-3.94-2.05-1.98-3.14-.22-4.28,1.13-1.53,1.81-2.65,3.97-4.72,5.75-1-1.64-1.65-3.24-3.48-3.51-.46.04-.92.09-1.38.13.22.17.44.34.66.51-1.5.11-3.07.71-4.54-.59,1.21-.86,2.35-.59,3.5-.21.06.04.11.09.17.13.22-.08.43-.18.65-.31.4-4.54-2.52-8.19-3.43-12.4-.36-1.67-2.28-2.05-3.91-.82.35-.89,1.2-2.03.38-2.61-5.26-3.72-.89-5.3,1.5-7.35,4.17-4.31,11.87-4.86,16.88-1.24,1.24.89,2.7,3.01,4.08,1.06,1.19-1.68-.54-3.46-2.09-4.27-5.14-2.68-10.44-4.49-16.16-1.43-.43.23-1.25-.27-1.89-.43-.06,0-.11,0-.17,0-.54.38-1.07.75-1.61,1.13-.51.74-.85,1.72-2.06,1.46l2.48-3.65s.05.03.07.05c1.47-1.2.98-3.01,1.35-4.55.26-1.07-.04-2.66,1.68-2.48,3.8.39,6.14-7.78,10.85-1.83.06.08.62-.14.88-.33,7.05-5.02,3.62,7.5,9.27,5.61.93-.31.32,2.5-.16,3.84-.22.62-.62,1.2-.74,1.84-.2,1.14.5,1.84,1.45,2.33,1.89-2.56,4.35-5.55,2.83-8.51-1.76-3.45-4.86-6.26-7.58-9.15-.91-.97-2.51-.62-3.81-.26-1.12.31-2.09.39-3.31-.03-3.89-1.35-12.53,2.64-13.7,6.53-.71,2.36-2.03,3.97-3.51,5.76-2.71,3.27-2.04,5.52,1.84,7.65-2.44,1.23-4.25,2.73-3.94,5.94.32,3.23,2.58,4.16,5.04,5.03-1.78,2.08-3.65,3.37-6.8,3.38-4.54.02-9.14,7.95-6.74,11.63,2.34,3.59,7.09,5.8-1.41,8.36-3.41,1.03-5.85,1.27-8.84.41-1.06-.3-2.34-.64-2.3-2.2.03-1.21.89-1.65,1.86-2.04,2.9-1.17,4.62-3.69,6.68-5.85,2.31-2.43,1.17-3.4-1.41-3.86-2.89-.52-5.91-.57-9.35-3.28,4.1-.24,6.61-1.95,8.8-4.26,1.32-1.39,1.7-2.49-.37-3.39-2.75-1.19-5.49-2.36-8.27-3.47-.92-.37-2.06-.62-2.62.53-.55,1.14.28,1.93,1.17,2.4,2,1.08,4.06,2.04,6.31,3.15-2.27,2.39-7.46,1.93-7.1,5.92.43,4.83,5.91,3.78,9.01,5.65-.7,1.81-2.02,2.93-3.6,3.29-3.9.91-3.93,4.15-4.13,6.94-.21,3.01,3.01,2.5,4.72,3.52.83.49,1.89.61,2.85.88,1.12.32,2.43.49,2.15,2.14-.22,1.32-.52,2.65-2.28,2.81-1.66.15-3.55,1-4.92.47-7.96-3.15-15.44,1.32-23.18,1.19-.97-.02-1.97.68-1.65,1.99.25,1.03,1.15,1.08,2,.98,2.48-.28,4.96-.57,7.44-.9q7.14-.95,4.65,5.38c-.3.77-.81,1.65-.66,2.37.97,4.69-1.99,5.43-5.52,5.82-1.57.17-3.11.55-4.61,1.04-2.99.97-4.37.2-4.16-3.33.37-6.31.26-12.51-8.46-13.79,2.27-2.28,4.49-2.74,6.49-3.21,3.83-.91,3.96-3.41,3.57-6.45-.12-.89-.28-1.74-1.34-1.71-.94.03-1.59.7-1.43,1.65.53,3.31-2.06,3.64-4.13,4.52-1.83.78-3.67,1.56-5.45,2.46-1.3.66-3.13,1.2-3.07,2.92.07,2.21,2.26,2.2,3.78,2.45,5.52.91,8.03,3.9,7.12,9.54-.13.83-.09,1.69.05,2.52.47,2.72-.35,4.14-2.94,5.01-.41.14-.8.31-1.17.54-2.15,1.37-.67,4.69,1.79,4,7.09-2,14.29-3.62,21.6-4.79,1.62-.26,3.46-.29,4-2.35.43-1.66-.71-2.29-1.96-2.99-1.84-1.04-1.45-2.82-1.01-4.43,1.02-3.73,3.54-5.86,7.26-6.78,5.42-1.34,10.9-1.2,16.39-.79,2.81.21,5.55-1.21,3.75-3.64-3.77-5.07-.96-8.22,1.82-11.79-.46-.66-1.02-1.27-1.35-1.99-.59-1.29.04-2.39,1.24-2.64,1.84-.39,1.37,1.19,1.48,2.21.07.64.15,1.27.22,1.91,0,0,0,0,0,0,3.19.35,6.89,2.81,8.79-2.2.23-.6,1.06-.76,1.7-.27.88.68.72,1.72-.03,2.03-3.07,1.24-2.46,3.82-2.68,6.23-.15,1.62-.26,3.69-1.25,4.68-2.38,2.37-2.02,4.62-1.44,7.56,1.16,5.88-.85,7.84-7,7.99-1.95.05-3.97-.4-5.85.49-.61.13-1.69.48-1.76.34-1.81-3.75-5.79-3.23-8.83-4.38-1.8-.68-4.48-1.28-4.23,2.41.29.7,2.56,1.33.07,2.12-1.48.61-2.61,1.57-2.46,3.3.1,1.13,1.06,1.81,2.11,1.63,4.58-.81,9.58.49,13.69-2.69h0s0,0,0,0c0,0,0,0,0,0,0,0,0-.01,0-.02.33,1.63,1.33,1.9,2.75,1.35,1.26.44,2.5.46,3.67-.28,0,0,0,0,0,0,0,0,.05.09.06.1,0,0,0,0,0,.01,2.17.68,4.34.58,6.52.04,1.37.41,1.65-2.78,2.6-1.35,2.69,4.01,6.7,1.51,9.95,2.49,1.11.34,2.29-.59,2.46-1.91.19-1.5-.47-2.62-2.12-2.78-2.31-.23-4.74-.91-6.91-.43-3.15.69-2.9-.88-2.68-2.86,0,0,0,0,0,0,1.86-4.86,9.09-7.94,11.98-4.73,2.41,2.69,4.35,1.9,6.99,1.07,1.98-.62,5.03-3.28,5.98-.68.84,2.31-.69,5.79-3.25,7.9-1.39,1.14-2.87.52-4.31.54-1.59.03-2.58.68-2.74,2.24-.16,1.47.94,2.03,2.13,2.3,1.13.25,2.29.37,3.45.5,2.67.31,5.34.64,8,.99,2.94.39,3.81-3.85.96-4.66Zm-44.74-16.54c-.68.65-3.29.73-3.82-.89-.98-2.93,1.25-4.7,3.53-6.29-.74,2.6,2.53,5.02.29,7.18Zm9.86-23.47c-1.27,1.26-2.56,2.52-4,3.57-1.06.78-1.93,2.86-3.64,1.43-1.54-1.28-.78-3.01-.08-4.59,1.57-3.24,4.87-1.9,7.35-2.53,1.05-.27,1.2,1.29.36,2.12Zm18.55,11.14c1.53-.28,2.4,2.07,3.73.62,1.9-2.08,3.92-1.14,5.41.09.78.64-.45,2.29-1.41,2.74-2.23,1.06-4.69,1.96-6.91.01-.84-.74-1.11-1.96-.82-3.47Zm12.32,12.95c-1.53,2.85-9.32,4.95-11.29,2.96-2.76-2.79-5.46-2.76-8.45-.75-1.39.94-2.95,1.3-4.17.27-1.71-1.45.23-2.55.75-3.82.68-1.69,1.08-3.49,1.56-5.25.35-1.31-.35-3.47,2-3.22,1.69.19,3.68-1.33,5.1,1.5,1.95,3.91,5.83,3.04,9.3,2.36,1.68-.33,3.38-1.8,4.83.52,1.19,1.9,1.09,3.75.37,5.44Z" style="fill:#7a7775; stroke-width:0px;"/><path d="m77.71,45.97c-1.49-.01-2.17,1.01-2.87,1.87-1.21,1.49-1.85,3.2-.77,5.01.66,1.12,1.51,2.24,3.06,2.16.73-.04,1.49-.84,1.19-1.26-1.65-2.3-1.18-4.46.01-6.71.11-.21-.42-.75-.62-1.08Z" style="fill:#7a7775; stroke-width:0px;"/></g></svg>